# xmcd
#
# Track frame offsets:
#  150
#  14115
#  28197
#  37797
#  50122
#  62232
#  77012
#  87325
#  100165
#  112730
#  122832
#  136495
#
# Disc length: 1973 seconds
#
# Revision: 0
# Processed by: cddbd v1.5.1PL2 Copyright (c) Steve Scherf et al.
# Submitted via: Collectorz.com_Music_Collector 6.11
#
DISCID=9f07b30c
DTITLE=Albert Collins - Truckin' With Albert Collins
DYEAR=1991
DGENRE=Blues
TTITLE0=Frosty
TTITLE1=Hot 'n Cold
TTITLE2=Frostbite
TTITLE3=Tremble
TTITLE4=Thaw Out
TTITLE5=Dyin' Flu
TTITLE6=Don't Lose Your Cool
TTITLE7=Backstroke
TTITLE8=Kool Aide
TTITLE9=Shiver 'n Shake
TTITLE10=Icy Blue
TTITLE11=Snow-Cone I I
EXTD=
EXTT0=
EXTT1=
EXTT2=
EXTT3=
EXTT4=
EXTT5=
EXTT6=
EXTT7=
EXTT8=
EXTT9=
EXTT10=
EXTT11=
PLAYORDER=
